<svg width="750" height="330" viewBox="0 0 750 330" fill="none" xmlns="http://www.w3.org/2000/svg">
<rect x="186" width="378" height="276" rx="17" fill="#D6D6D6"/>
<rect x="193" y="8" width="363" height="260" rx="12" fill="#2C2C2C"/>
<path d="M339 276H408.5L420 318H330L339 276Z" fill="#EFEFEF"/>
<path d="M339 276H408.5L420 318H330L339 276Z" fill="black" fill-opacity="0.21"/>
<rect x="314" y="314" width="126" height="15" fill="#D6D6D6"/>
<circle cx="34.3425" cy="190.193" r="24.034" transform="rotate(13.3329 34.3425 190.193)" fill="#C7F77A"/>
<circle cx="47.7187" cy="151.991" r="28.2399" transform="rotate(13.3329 47.7187 151.991)" fill="#9EC959"/>
<circle cx="47.7187" cy="151.991" r="28.2399" transform="rotate(13.3329 47.7187 151.991)" fill="#9EC959"/>
<circle cx="47.7187" cy="151.991" r="28.2399" transform="rotate(13.3329 47.7187 151.991)" fill="#9EC959"/>
<circle cx="33.9911" cy="173.437" r="28.2399" transform="rotate(13.3329 33.9911 173.437)" fill="#9EC959"/>
<circle cx="33.9911" cy="173.437" r="28.2399" transform="rotate(13.3329 33.9911 173.437)" fill="#9EC959"/>
<circle cx="33.9911" cy="173.437" r="28.2399" transform="rotate(13.3329 33.9911 173.437)" fill="#9EC959"/>
<circle cx="72.1457" cy="194.83" r="28.2399" transform="rotate(13.3329 72.1457 194.83)" fill="#9EC959"/>
<circle cx="72.1457" cy="194.83" r="28.2399" transform="rotate(13.3329 72.1457 194.83)" fill="#9EC959"/>
<circle cx="72.1457" cy="194.83" r="28.2399" transform="rotate(13.3329 72.1457 194.83)" fill="#9EC959"/>
<circle cx="51.774" cy="197.412" r="28.2399" transform="rotate(13.3329 51.774 197.412)" fill="#9EC959"/>
<circle cx="51.774" cy="197.412" r="28.2399" transform="rotate(13.3329 51.774 197.412)" fill="#9EC959"/>
<circle cx="51.774" cy="197.412" r="28.2399" transform="rotate(13.3329 51.774 197.412)" fill="#A1D250"/>
<path d="M12.9999 256.499H106L90.2986 329.499H31.1168L12.9999 256.499Z" fill="#C4C4C4"/>
<rect x="6.99994" y="250.499" width="106" height="15" rx="7.5" fill="#8F8F8F"/>
<circle cx="66.8129" cy="152.194" r="24.034" transform="rotate(13.3329 66.8129 152.194)" fill="#B1D970"/>
<line x1="60.427" y1="250.396" x2="59.44" y2="175.897" stroke="#805F0B" stroke-width="6"/>
<line x1="59.6652" y1="232.318" x2="94.9943" y2="166.721" stroke="#805F0B" stroke-width="6"/>
<circle cx="49.2394" cy="169.024" r="24.034" transform="rotate(13.3329 49.2394 169.024)" fill="#A2C16E"/>
<circle cx="92.0713" cy="191.525" r="24.034" transform="rotate(13.3329 92.0713 191.525)" fill="#9EC959"/>
<circle cx="92.0713" cy="191.525" r="24.034" transform="rotate(13.3329 92.0713 191.525)" fill="#9EC959"/>
<circle cx="92.0713" cy="191.525" r="24.034" transform="rotate(13.3329 92.0713 191.525)" fill="#9EC959"/>
<circle cx="89.4285" cy="166.199" r="24.034" transform="rotate(13.3329 89.4285 166.199)" fill="#9DC260"/>
<circle cx="89.4285" cy="166.199" r="24.034" transform="rotate(13.3329 89.4285 166.199)" fill="#9DC260"/>
<circle cx="89.4285" cy="166.199" r="24.034" transform="rotate(13.3329 89.4285 166.199)" fill="#9DC260"/>
<circle cx="89.4285" cy="166.199" r="24.034" transform="rotate(13.3329 89.4285 166.199)" fill="#9DC260"/>
<circle cx="89.4285" cy="166.199" r="24.034" transform="rotate(13.3329 89.4285 166.199)" fill="#9DC260"/>
<circle cx="74.2275" cy="162.596" r="24.034" transform="rotate(13.3329 74.2275 162.596)" fill="#9DC260"/>
<circle cx="74.2275" cy="162.596" r="24.034" transform="rotate(13.3329 74.2275 162.596)" fill="#9DC260"/>
<circle cx="74.2275" cy="162.596" r="24.034" transform="rotate(13.3329 74.2275 162.596)" fill="#9DC260"/>
<circle cx="74.2275" cy="162.596" r="24.034" transform="rotate(13.3329 74.2275 162.596)" fill="#9DC260"/>
<circle cx="74.2275" cy="162.596" r="24.034" transform="rotate(13.3329 74.2275 162.596)" fill="#AACE70"/>
<circle cx="663.343" cy="190.193" r="24.034" transform="rotate(13.3329 663.343 190.193)" fill="#C7F77A"/>
<circle cx="676.719" cy="151.991" r="28.2399" transform="rotate(13.3329 676.719 151.991)" fill="#9EC959"/>
<circle cx="676.719" cy="151.991" r="28.2399" transform="rotate(13.3329 676.719 151.991)" fill="#9EC959"/>
<circle cx="676.719" cy="151.991" r="28.2399" transform="rotate(13.3329 676.719 151.991)" fill="#9EC959"/>
<circle cx="662.991" cy="173.437" r="28.2399" transform="rotate(13.3329 662.991 173.437)" fill="#9EC959"/>
<circle cx="662.991" cy="173.437" r="28.2399" transform="rotate(13.3329 662.991 173.437)" fill="#9EC959"/>
<circle cx="662.991" cy="173.437" r="28.2399" transform="rotate(13.3329 662.991 173.437)" fill="#9EC959"/>
<circle cx="701.146" cy="194.83" r="28.2399" transform="rotate(13.3329 701.146 194.83)" fill="#9EC959"/>
<circle cx="701.146" cy="194.83" r="28.2399" transform="rotate(13.3329 701.146 194.83)" fill="#9EC959"/>
<circle cx="701.146" cy="194.83" r="28.2399" transform="rotate(13.3329 701.146 194.83)" fill="#9EC959"/>
<circle cx="680.774" cy="197.412" r="28.2399" transform="rotate(13.3329 680.774 197.412)" fill="#9EC959"/>
<circle cx="680.774" cy="197.412" r="28.2399" transform="rotate(13.3329 680.774 197.412)" fill="#9EC959"/>
<circle cx="680.774" cy="197.412" r="28.2399" transform="rotate(13.3329 680.774 197.412)" fill="#A1D250"/>
<path d="M642 256.499H735L719.299 329.499H660.117L642 256.499Z" fill="#C4C4C4"/>
<rect x="636" y="250.499" width="106" height="15" rx="7.5" fill="#8F8F8F"/>
<circle cx="695.813" cy="152.194" r="24.034" transform="rotate(13.3329 695.813 152.194)" fill="#B1D970"/>
<line x1="689.427" y1="250.396" x2="688.44" y2="175.897" stroke="#805F0B" stroke-width="6"/>
<line x1="688.665" y1="232.318" x2="723.994" y2="166.721" stroke="#805F0B" stroke-width="6"/>
<circle cx="678.239" cy="169.024" r="24.034" transform="rotate(13.3329 678.239 169.024)" fill="#A2C16E"/>
<circle cx="721.071" cy="191.525" r="24.034" transform="rotate(13.3329 721.071 191.525)" fill="#9EC959"/>
<circle cx="721.071" cy="191.525" r="24.034" transform="rotate(13.3329 721.071 191.525)" fill="#9EC959"/>
<circle cx="721.071" cy="191.525" r="24.034" transform="rotate(13.3329 721.071 191.525)" fill="#9EC959"/>
<circle cx="718.428" cy="166.199" r="24.034" transform="rotate(13.3329 718.428 166.199)" fill="#9DC260"/>
<circle cx="718.428" cy="166.199" r="24.034" transform="rotate(13.3329 718.428 166.199)" fill="#9DC260"/>
<circle cx="718.428" cy="166.199" r="24.034" transform="rotate(13.3329 718.428 166.199)" fill="#9DC260"/>
<circle cx="718.428" cy="166.199" r="24.034" transform="rotate(13.3329 718.428 166.199)" fill="#9DC260"/>
<circle cx="718.428" cy="166.199" r="24.034" transform="rotate(13.3329 718.428 166.199)" fill="#9DC260"/>
<circle cx="703.228" cy="162.596" r="24.034" transform="rotate(13.3329 703.228 162.596)" fill="#9DC260"/>
<circle cx="703.228" cy="162.596" r="24.034" transform="rotate(13.3329 703.228 162.596)" fill="#9DC260"/>
<circle cx="703.228" cy="162.596" r="24.034" transform="rotate(13.3329 703.228 162.596)" fill="#9DC260"/>
<circle cx="703.228" cy="162.596" r="24.034" transform="rotate(13.3329 703.228 162.596)" fill="#9DC260"/>
<circle cx="703.228" cy="162.596" r="24.034" transform="rotate(13.3329 703.228 162.596)" fill="#AACE70"/>
</svg>
